<svg xmlns="http://www.w3.org/2000/svg" viewBox="0 0 2449.5 2449.5"><defs><style>.a{fill:#fff;}.b{fill:#3b4652;}.c{fill:#2b79c2;}</style></defs><rect class="a" width="2449.5" height="2449.5"/><path class="b" d="M1695,1318.8l-27.4-67.29a389,389,0,0,1-84,35.29l27,66.36Z"/><rect class="c" x="1684.88" y="1432.57" width="41.62" height="66.38" transform="translate(-426.77 751.3) rotate(-22.15)"/><path class="b" d="M1815.74,1040.63a375.47,375.47,0,1,0-204.42,202A373,373,0,0,0,1815.74,1040.63Zm-346.07,197.28a343.62,343.62,0,0,1-317.5-213.73c-71.3-175.08,13.14-375.53,188.23-446.83a342.84,342.84,0,1,1,129.27,660.56Z"/><path class="b" d="M1771.57,1375.44a48.58,48.58,0,0,0-63.42-26.71l-81.79,33.3-4.21,1.71a48.73,48.73,0,0,0-26.71,63.42L1779.87,1900a48.64,48.64,0,0,0,63.41,26.71l86-35a48.71,48.71,0,0,0,26.71-63.41Zm-140.24,49.5,99-40.33,49.66,122-99,40.33Zm65.36,160.51,99-40.33,49.67,122-99,40.33Zm115,282.47-49.67-122,99-40.33,49.68,122Z"/><rect class="c" x="1815.6" y="1753.58" width="41.62" height="66.38" transform="translate(-538.19 824.37) rotate(-22.15)"/><rect class="c" x="1750.24" y="1593.08" width="41.62" height="66.38" transform="translate(-482.63 788.23) rotate(-22.16)"/><path class="b" d="M1785.66,1028A342.84,342.84,0,0,0,1340.4,577.35c-175.09,71.3-259.53,271.75-188.23,446.83a342.85,342.85,0,0,0,633.49,3.78ZM1352.71,607.6a310.56,310.56,0,0,1,357.6,91.32H1229.25A308.39,308.39,0,0,1,1352.71,607.6Zm-170.28,404.27a308.19,308.19,0,0,1,1.41-237.41,313.11,313.11,0,0,1,24.58-46.33v3.45h524.71A312.16,312.16,0,0,1,1757,777.89a308.14,308.14,0,0,1-1.41,237.39c-3.84,9.12-8.13,18-12.74,26.57h-546.2A314,314,0,0,1,1182.43,1011.87Zm404.26,170.28a309.58,309.58,0,0,1-369.6-107.64H1722.4A308,308,0,0,1,1586.69,1182.15Z"/><path class="b" d="M1801.82,1363.13a81.2,81.2,0,0,0-74.08-50.62l-31.72-77.9a405.28,405.28,0,0,0,149.82-181.3c42.32-100.47,43-211.4,1.87-312.37s-119.1-179.88-219.57-222.2-211.4-43-312.37-1.87S1135.88,636,1093.56,736.44s-43,211.4-1.87,312.37,119.1,179.88,219.57,222.21a403.6,403.6,0,0,0,240.32,23.74l31.26,76.74a81.44,81.44,0,0,0-17.65,88l184.42,452.88a81.35,81.35,0,0,0,106,44.64l86-35h0a81.42,81.42,0,0,0,44.64-106Zm-477.88-122.22a375.47,375.47,0,1,1,287.38,1.72A373,373,0,0,1,1323.94,1240.91Zm299.69,32a413.75,413.75,0,0,0,44-21.37l27.4,67.29-84.4,34.36-27-66.36A413.23,413.23,0,0,0,1623.63,1272.88Zm305.65,618.84-86,35a48.64,48.64,0,0,1-63.41-26.71l-184.43-452.87a48.73,48.73,0,0,1,26.71-63.42l4.21-1.71,81.79-33.3a48.64,48.64,0,0,1,63.42,26.71L1956,1828.31A48.71,48.71,0,0,1,1929.28,1891.72Z"/><path class="c" d="M1314.56,927.54c-22.5,0-40.82-22-40.82-49s18.32-49,40.82-49c12.71,0,24.48,7,32.32,19.12l27.45-17.7c-13.77-21.34-36.11-34.08-59.77-34.08-40.52,0-73.48,36.63-73.48,81.65s33,81.65,73.48,81.65c24.14,0,46.74-13.15,60.45-35.18l-27.71-17.27C1339.58,920.14,1327.35,927.54,1314.56,927.54Z"/><path class="c" d="M1461.53,796.9c-40.52,0-73.48,36.63-73.48,81.65s33,81.65,73.48,81.65S1535,923.56,1535,878.55,1502.06,796.9,1461.53,796.9Zm0,130.64c-22.5,0-40.82-22-40.82-49s18.32-49,40.82-49,40.83,22,40.83,49S1484,927.54,1461.53,927.54Z"/><path class="c" d="M1747.31,960.2v-98a57.07,57.07,0,0,0-98-39.88A56.28,56.28,0,0,0,1584,810.79V796.9h-32.66V960.2H1584v-98a24.5,24.5,0,1,1,49,0v98h32.66v-98a24.5,24.5,0,1,1,49,0v98Z"/><rect class="c" x="1192.09" y="927.54" width="32.66" height="32.66"/><polygon class="b" points="440.91 1776.69 440.91 1874.68 1699.01 1874.68 1659.11 1776.69 440.91 1776.69"/><path class="b" d="M1975.93,796.9v881.82H1965.6l26.6,65.32h16.39V731.58H1879.07a445.5,445.5,0,0,1,20.4,65.32Z"/><path class="b" d="M473.57,1678.72V796.9h566.36a445.39,445.39,0,0,1,20.46-65.32H440.91V1744h1204.9l-26.6-65.32Z"/><path class="b" d="M881.82,649.93V617.27h245.35a432.76,432.76,0,0,1,46.23-49H440.91V698.92h634a440.57,440.57,0,0,1,28.22-49Zm-293.94,0H555.22V617.27h32.66Zm98,0H653.2V617.27h32.66Zm98,0H751.18V617.27h32.66Z"/><path class="b" d="M1812.36,617.27h130.91v32.66h-107a443.35,443.35,0,0,1,28.13,49h144.16V568.28H1766A435.6,435.6,0,0,1,1812.36,617.27Z"/><path class="b" d="M506.23,845.89v800.17h32.66V992.86h501q-3.75-16.26-6.27-32.66H538.89v-98H1030c.82-10.92,2-21.81,3.61-32.66H506.23Z"/><rect class="b" x="571.55" y="894.88" width="32.66" height="32.66"/><rect class="b" x="669.53" y="894.88" width="32.66" height="32.66"/><rect class="b" x="767.51" y="894.88" width="32.66" height="32.66"/><rect class="b" x="865.49" y="894.88" width="32.66" height="32.66"/><rect class="b" x="963.47" y="894.88" width="32.66" height="32.66"/><rect class="b" x="571.55" y="1041.85" width="457.24" height="32.66"/><rect class="b" x="571.55" y="1139.83" width="506.23" height="32.66"/><rect class="b" x="571.55" y="1237.81" width="587.88" height="32.66"/><path class="b" d="M1175.76,1368.45v32.66h354.33a113.92,113.92,0,0,1,4.93-14.93v-17.73Z"/><path class="b" d="M1175.76,1499.09H1535V1472l-.08-.2c-.72-1.77-1.18-3.58-1.81-5.36H1175.76Z"/><rect class="b" x="1175.76" y="1564.41" width="359.26" height="32.66"/><polygon class="c" points="620.54 1629.73 1077.78 1629.73 849.16 1499.09 620.54 1629.73"/><polygon class="c" points="1077.78 1335.79 620.54 1335.79 849.16 1466.43 1077.78 1335.79"/><polygon class="c" points="1126.77 1629.73 1126.77 1335.79 865.49 1482.76 1126.77 1629.73"/><polygon class="c" points="571.55 1335.79 571.55 1629.73 832.83 1482.76 571.55 1335.79"/></svg>